<svg width="51" height="51" viewBox="0 0 51 51" fill="none" xmlns="http://www.w3.org/2000/svg">
<path d="M35.0762 7.38867L43.0762 7.38867C43.6066 7.38867 44.1153 7.59939 44.4904 7.97446C44.8655 8.34953 45.0762 8.85824 45.0762 9.38867L45.0762 41.3887C45.0762 41.9191 44.8655 42.4278 44.4904 42.8029C44.1153 43.178 43.6066 43.3887 43.0762 43.3887L7.07617 43.3887C6.54574 43.3887 6.03703 43.178 5.66196 42.8029C5.28689 42.4278 5.07617 41.9191 5.07617 41.3887L5.07617 9.38867C5.07617 8.85824 5.28689 8.34953 5.66196 7.97446C6.03703 7.59939 6.54574 7.38867 7.07617 7.38867L15.0762 7.38867L15.0762 3.38867L19.0762 3.38867L19.0762 7.38867L31.0762 7.38867L31.0762 3.38867L35.0762 3.38867L35.0762 7.38867ZM9.07617 19.3887L9.07617 39.3887L41.0762 39.3887L41.0762 19.3887L9.07617 19.3887ZM13.0762 27.3887L23.0762 27.3887L23.0762 35.3887L13.0762 35.3887L13.0762 27.3887Z" fill="white"/>
</svg>
