<svg width="51" height="52" viewBox="0 0 51 52" fill="none" xmlns="http://www.w3.org/2000/svg">
<path d="M41 46L13 46C11.4087 46 9.88258 45.3679 8.75736 44.2426C7.63214 43.1174 7 41.5913 7 40L7 12C7 10.4087 7.63214 8.88258 8.75736 7.75736C9.88258 6.63214 11.4087 6 13 6L41 6C41.5304 6 42.0391 6.21071 42.4142 6.58579C42.7893 6.96086 43 7.46957 43 8L43 44C43 44.5304 42.7893 45.0391 42.4142 45.4142C42.0391 45.7893 41.5304 46 41 46ZM39 42L39 38L13 38C12.4696 38 11.9609 38.2107 11.5858 38.5858C11.2107 38.9609 11 39.4696 11 40C11 40.5304 11.2107 41.0391 11.5858 41.4142C11.9609 41.7893 12.4696 42 13 42L39 42ZM11 34.34C11.626 34.12 12.3 34 13 34L39 34L39 10L13 10C12.4696 10 11.9609 10.2107 11.5858 10.5858C11.2107 10.9609 11 11.4696 11 12L11 34.34ZM25 22C23.9391 22 22.9217 21.5786 22.1716 20.8284C21.4214 20.0783 21 19.0609 21 18C21 16.9391 21.4214 15.9217 22.1716 15.1716C22.9217 14.4214 23.9391 14 25 14C26.0609 14 27.0783 14.4214 27.8284 15.1716C28.5786 15.9217 29 16.9391 29 18C29 19.0609 28.5786 20.0783 27.8284 20.8284C27.0783 21.5786 26.0609 22 25 22ZM19 30C19 28.4087 19.6321 26.8826 20.7574 25.7574C21.8826 24.6321 23.4087 24 25 24C26.5913 24 28.1174 24.6321 29.2426 25.7574C30.3679 26.8826 31 28.4087 31 30L19 30Z" fill="white"/>
</svg>
