<svg width="51" height="51" viewBox="0 0 51 51" fill="none" xmlns="http://www.w3.org/2000/svg">
<path d="M25.0222 4.30242C13.512 4.36494 4.23986 13.7384 4.30239 25.2486C4.32378 29.6221 5.72181 33.8777 8.29814 37.4118C10.8745 40.9459 14.4983 43.5791 18.6554 44.9376C19.698 45.1132 20.0842 44.4861 20.0812 43.9382C20.0785 43.4444 20.0426 41.805 20.0331 40.0592C14.8051 41.0522 13.4387 38.82 13.0157 37.6494C12.777 37.0507 11.7524 35.2083 10.8643 34.7173C10.1331 34.3317 9.08617 33.3727 10.8298 33.3383C12.4713 33.3023 13.6504 34.8334 14.0455 35.4563C15.9376 38.596 18.9285 37.6943 20.1214 37.142C20.2974 35.7869 20.8383 34.8735 21.4354 34.3494C16.7972 33.8538 11.9438 32.0822 11.9005 24.1136C11.8882 21.8469 12.6842 19.9697 14.0055 18.5021C13.7943 17.9824 13.0535 15.8509 14.1838 12.9802C14.1838 12.9802 15.9246 12.4249 19.9245 15.0865C21.6179 14.6066 23.3689 14.3602 25.1289 14.3541C26.8997 14.3444 28.6718 14.5682 30.341 15.0278C34.3096 12.2979 36.0585 12.8634 36.0585 12.8634C37.2199 15.7217 36.5023 17.8611 36.2968 18.383C37.6318 19.8341 38.4502 21.6776 38.4626 23.9693C38.506 31.965 33.647 33.7622 29.0145 34.3083C29.7722 34.9541 30.431 36.2006 30.4416 38.1547C30.4568 40.9401 30.4418 43.1798 30.4457 43.884C30.4486 44.4298 30.8438 45.0776 31.8844 44.8637C36.0122 43.445 39.5912 40.7675 42.1177 37.2083C44.6442 33.649 45.991 29.387 45.9684 25.0223C45.9059 13.512 36.5325 4.23989 25.0222 4.30242Z" fill="white"/>
</svg>
