<svg width="51" height="52" viewBox="0 0 51 52" fill="none" xmlns="http://www.w3.org/2000/svg">
<path d="M45 38.5114C44.9963 38.9381 44.7862 39.3466 44.415 39.6485C44.0438 39.9504 43.5412 40.1216 43.016 40.125L6.984 40.125C6.45763 40.1246 5.95299 39.9544 5.58098 39.6518C5.20896 39.3492 5 38.9391 5 38.5114L5 36.875L41 36.875L41 17.8625L25 29.5625L5 14.9375L5 12.5C5 12.069 5.21071 11.6557 5.58579 11.351C5.96086 11.0462 6.46957 10.875 7 10.875L43 10.875C43.5304 10.875 44.0391 11.0462 44.4142 11.351C44.7893 11.6557 45 12.069 45 12.5L45 38.5114ZM9.868 14.125L25 25.1913L40.132 14.125L9.868 14.125ZM1 30.375L17 30.375L17 33.625L1 33.625L1 30.375ZM1 22.25L11 22.25L11 25.5L1 25.5L1 22.25Z" fill="white"/>
</svg>
