<svg width="51" height="51" viewBox="0 0 51 51" fill="none" xmlns="http://www.w3.org/2000/svg">
<path d="M41.2402 18.42L31.5802 8.76C30.4561 7.63446 28.931 7.0014 27.3402 7L13.0002 7C11.4089 7 9.88282 7.63214 8.7576 8.75736C7.63239 9.88258 7.00024 11.4087 7.00024 13L7.00024 37C7.00024 38.5913 7.63239 40.1174 8.7576 41.2426C9.88282 42.3679 11.4089 43 13.0002 43L37.0002 43C38.5915 43 40.1177 42.3679 41.2429 41.2426C42.3681 40.1174 43.0002 38.5913 43.0002 37L43.0002 22.66C42.9988 21.0692 42.3658 19.5441 41.2402 18.42ZM21.0002 39L21.0002 35L29.0002 35L29.0002 39L21.0002 39ZM39.0002 37C39.0002 37.5304 38.7895 38.0391 38.4145 38.4142C38.0394 38.7893 37.5307 39 37.0002 39L33.0002 39L33.0002 33C33.0002 32.4696 32.7895 31.9609 32.4145 31.5858C32.0394 31.2107 31.5307 31 31.0002 31L19.0002 31C18.4698 31 17.9611 31.2107 17.586 31.5858C17.211 31.9609 17.0002 32.4696 17.0002 33L17.0002 39L13.0002 39C12.4698 39 11.9611 38.7893 11.586 38.4142C11.211 38.0391 11.0002 37.5304 11.0002 37L11.0002 13C11.0002 12.4696 11.211 11.9609 11.586 11.5858C11.9611 11.2107 12.4698 11 13.0002 11L17.0002 11L17.0002 21C17.0002 21.5304 17.211 22.0391 17.586 22.4142C17.9611 22.7893 18.4698 23 19.0002 23L27.0002 23C27.5307 23 28.0394 22.7893 28.4145 22.4142C28.7895 22.0391 29.0002 21.5304 29.0002 21C29.0002 20.4696 28.7895 19.9609 28.4145 19.5858C28.0394 19.2107 27.5307 19 27.0002 19L21.0002 19L21.0002 11L27.3402 11C27.8698 11.0074 28.377 11.2145 28.7602 11.58L38.4202 21.24C38.6056 21.4269 38.7523 21.6485 38.8518 21.8922C38.9513 22.1359 39.0018 22.3968 39.0002 22.66L39.0002 37Z" fill="white"/>
</svg>
