<svg width="51" height="51" viewBox="0 0 51 51" fill="none" xmlns="http://www.w3.org/2000/svg">
<path fill-rule="evenodd" clip-rule="evenodd" d="M35.219 11.5959L35.219 9.59595C35.219 7.38681 33.4282 5.59595 31.219 5.59595L19.219 5.59595C17.0099 5.59595 15.219 7.38681 15.219 9.59595L15.219 11.5959L9.21899 11.5959C8.11443 11.5959 7.21899 12.4914 7.21899 13.5959C7.21899 14.7005 8.11443 15.5959 9.21899 15.5959L11.219 15.5959L11.219 37.5959C11.219 40.9097 13.9053 43.5959 17.219 43.5959L33.219 43.5959C36.5328 43.5959 39.219 40.9097 39.219 37.5959L39.219 15.5959L41.219 15.5959C42.3236 15.5959 43.219 14.7005 43.219 13.5959C43.219 12.4914 42.3236 11.5959 41.219 11.5959L35.219 11.5959ZM31.219 9.59595L19.219 9.59595L19.219 11.5959L31.219 11.5959L31.219 9.59595ZM35.219 15.5959L15.219 15.5959L15.219 37.5959C15.219 38.7005 16.1144 39.5959 17.219 39.5959L33.219 39.5959C34.3236 39.5959 35.219 38.7005 35.219 37.5959L35.219 15.5959Z" fill="white"/>
<path d="M19.219 19.5959L23.219 19.5959L23.219 35.5959L19.219 35.5959L19.219 19.5959Z" fill="white"/>
<path d="M27.219 19.5959L31.219 19.5959L31.219 35.5959L27.219 35.5959L27.219 19.5959Z" fill="white"/>
</svg>
