<svg width="51" height="51" viewBox="0 0 51 51" fill="none" xmlns="http://www.w3.org/2000/svg">
<path fill-rule="evenodd" clip-rule="evenodd" d="M39.8809 9.10322C37.9394 7.16079 35.6329 5.62155 33.0941 4.57411C30.5553 3.52668 27.8345 2.99174 25.0881 3.0001C13.5625 3.0001 4.18 12.3357 4.17531 23.8126C4.17021 27.4671 5.13353 31.0577 6.96719 34.2188L4 45.0001L15.0859 42.106C18.1546 43.7684 21.5897 44.6385 25.0797 44.6373L25.0881 44.6373C36.6128 44.6373 45.9944 35.3007 46 23.8248C46.007 21.0878 45.4696 18.3768 44.4191 15.8494C43.3686 13.3221 41.8259 11.0288 39.8809 9.10322ZM25.0881 41.1245L25.0806 41.1245C21.9694 41.1254 18.9148 40.2928 16.2344 38.7132L15.5997 38.3382L9.02125 40.0557L10.7772 33.6723L10.3637 33.016C8.62411 30.2618 7.70242 27.0702 7.70594 23.8126C7.70594 14.2754 15.5069 6.51572 25.0947 6.51572C29.694 6.50751 34.1083 8.32653 37.3666 11.5727C40.625 14.8189 42.4604 19.2264 42.4694 23.8257C42.4656 33.3638 34.6684 41.1245 25.0881 41.1245ZM34.6216 28.1692C34.0994 27.9085 31.5278 26.6504 31.0516 26.477C30.5753 26.3035 30.2237 26.2163 29.8759 26.7376C29.5281 27.2588 28.5259 28.4251 28.2212 28.7767C27.9166 29.1282 27.6119 29.1667 27.0897 28.906C26.5675 28.6454 24.8828 28.097 22.8869 26.3251C21.3334 24.946 20.2853 23.2435 19.9806 22.7232C19.6759 22.2029 19.9478 21.9207 20.2094 21.662C20.4447 21.4285 20.7316 21.0545 20.9931 20.7507C21.2547 20.447 21.3419 20.2295 21.5153 19.8826C21.6887 19.5357 21.6025 19.232 21.4722 18.9723C21.3419 18.7126 20.2966 16.1523 19.8616 15.1107C19.4369 14.0963 19.0066 14.2342 18.6859 14.2182C18.3812 14.2032 18.0297 14.1995 17.6837 14.1995C17.4193 14.2064 17.1591 14.2677 16.9194 14.3796C16.6797 14.4916 16.4657 14.6517 16.2906 14.8501C15.8116 15.3713 14.4616 16.6313 14.4616 19.1888C14.4616 21.7463 16.3366 24.2213 16.5953 24.5682C16.8541 24.9151 20.2797 30.1679 25.5212 32.4207C26.4946 32.8375 27.489 33.203 28.5006 33.5157C29.7522 33.9113 30.8912 33.856 31.7912 33.722C32.7953 33.5729 34.885 32.4639 35.3191 31.2488C35.7531 30.0338 35.7541 28.9932 35.6237 28.7767C35.4934 28.5601 35.1447 28.4289 34.6216 28.1692Z" fill="white"/>
</svg>
