<svg width="71" height="71" viewBox="0 0 71 71" fill="none" xmlns="http://www.w3.org/2000/svg">
<path d="M9.594 68.2985C9.25015 68.1266 8.91566 67.8132 8.74006 67.4984C8.46807 67.0109 8.44766 66.7167 8.38676 62.4048C8.33154 58.4954 8.28166 57.6468 8.04444 56.5806C7.41891 53.7692 6.74547 52.1843 5.03934 49.5083C2.57129 45.6374 1.04009 41.9032 0.291335 37.9292C-0.0105762 36.3269 -0.042546 31.7524 0.234641 29.8169C1.7666 19.1201 9.14576 10.4364 19.3259 7.35067C20.8021 6.9032 23.8184 6.26927 23.8184 6.40649C23.8184 6.43917 23.5689 6.87958 23.264 7.38519C22.5896 8.50335 21.9931 10.0275 21.6489 11.5122C21.2914 13.054 21.2879 16.7093 21.6422 18.3765C22.2546 21.2583 23.8158 24.8659 25.8729 28.1529C29.0043 33.1565 33.2102 39.3954 33.6532 39.694C34.4546 40.234 35.0605 40.1324 37.0279 39.1279C40.9669 37.1166 43.3914 35.1001 45.2781 32.2661C46.0788 31.0633 46.9229 29.2562 47.2967 27.9449C47.8971 25.8381 48.0153 24.7637 48.0065 21.491C47.9988 18.625 47.9703 18.2395 47.73 17.7487C46.9723 16.2013 44.8637 16.1639 44.0364 17.6831C43.7944 18.1276 43.7795 18.373 43.8595 20.5952C44.0557 26.0436 42.9378 29.2784 39.8423 32.2188C38.4616 33.5303 35.64 35.3891 35.4084 35.1398C35.2549 34.9745 29.443 26.0146 28.8339 25.0044C26.4956 21.1255 25.3632 17.4645 25.5331 14.3329C25.7057 11.1505 26.7606 8.88451 29.1659 6.52937C31.1844 4.55296 33.6773 3.24536 36.5203 2.67183C37.8623 2.40109 38.1307 2.38917 39.6738 2.53174C42.4812 2.79112 45.0036 3.72753 47.5826 5.46781L48.6282 6.17337L50.8185 6.17579C54.4548 6.17981 56.9755 6.74487 59.9784 8.22917C65.3995 10.9087 69.1948 15.813 70.5676 21.9126C70.8769 23.2867 70.8802 23.4179 70.9344 36.3345C70.9925 50.1921 70.9702 50.81 70.335 52.9319C69.0761 57.138 65.8914 61.0463 62.2147 62.8974C60.061 63.9818 58.1939 64.3536 55.4734 64.2399C53.529 64.1587 52.2418 63.8784 50.5175 63.1606C48.7451 62.4227 46.415 60.7535 45.6949 59.7058C45.543 59.4848 45.4527 59.0911 45.4522 58.6468C45.4509 57.6949 45.6313 57.4687 49.2132 53.9302C52.3382 50.8429 52.7297 50.5648 53.6949 50.7458C53.9479 50.7933 54.4274 51.0296 54.7606 51.271C55.8947 52.0927 57.3015 51.9015 58.0357 50.8258C58.3295 50.3954 58.3477 50.2301 58.3461 47.9971C58.3443 45.3971 58.2205 44.6755 57.5666 43.4553C56.9915 42.3821 56.0668 41.5164 54.8743 40.935C54.0432 40.5297 53.43 40.3627 51.742 40.0815C50.5875 39.8893 49.5065 39.732 49.3396 39.732C49.0812 39.732 48.8043 40.2094 47.4698 42.9561C46.6083 44.7293 45.6369 46.8354 45.3111 47.6363C43.0784 53.1255 41.9829 58.3516 41.7301 64.7209C41.6241 67.3885 41.5744 67.555 40.683 68.2205C40.3134 68.4964 40.1321 68.5064 35.4669 68.5064C30.8017 68.5064 30.6204 68.4964 30.2508 68.2205C30.0401 68.0632 29.7391 67.7623 29.5819 67.5518C29.3059 67.1824 29.2946 66.9761 29.2568 61.6321L29.2175 56.0952H25.0679H20.9183L20.8776 61.6322C20.8384 66.975 20.827 67.1825 20.5511 67.5518C20.3938 67.7623 20.093 68.0632 19.8825 68.2205C19.5162 68.4941 19.2993 68.508 14.8295 68.5438C10.3669 68.5795 10.1341 68.5686 9.594 68.2985ZM57.1599 26.6948C57.9179 26.3192 58.2488 25.8244 58.3115 24.9731C58.4007 23.7595 57.5192 22.8156 56.2954 22.8145C54.5033 22.813 53.5607 24.795 54.7062 26.1564C55.3934 26.973 56.2286 27.1563 57.1599 26.6948Z" fill="white"/>
</svg>
